<?xml version="1.0" standalone="no"?>
<!DOCTYPE svg PUBLIC "-//W3C//DTD SVG 20010904//EN"
 "http://www.w3.org/TR/2001/REC-SVG-20010904/DTD/svg10.dtd">
<svg version="1.0" xmlns="http://www.w3.org/2000/svg"
 width="512.000000pt" height="512.000000pt" viewBox="0 0 512.000000 512.000000"
 preserveAspectRatio="xMidYMid meet">
<metadata>
Created by potrace 1.14, written by Peter Selinger 2001-2017
</metadata>
<g transform="translate(0.000000,512.000000) scale(0.100000,-0.100000)"
fill="#000000" stroke="none">
<path d="M1561 5110 c-116 -17 -172 -31 -197 -53 -31 -27 -49 -94 -64 -240
-33 -306 46 -624 219 -889 27 -43 47 -79 43 -82 -4 -2 -27 -7 -52 -11 -56 -9
-95 -31 -109 -61 -48 -106 -60 -432 -22 -611 94 -449 386 -815 794 -994 207
-91 386 -124 628 -116 154 6 167 5 195 -14 47 -32 214 -114 279 -137 241 -84
490 -102 739 -51 541 110 957 525 1078 1077 29 130 31 394 5 525 -34 168 -109
361 -154 397 -37 29 -86 26 -123 -7 -41 -38 -41 -71 3 -180 159 -392 115 -809
-121 -1143 -55 -79 -186 -211 -265 -269 -332 -243 -779 -294 -1157 -134 -609
259 -881 956 -614 1568 111 253 350 488 611 600 159 69 342 101 518 92 127 -7
214 -23 340 -66 113 -39 138 -39 176 -2 39 39 41 97 3 134 -57 58 -315 125
-515 134 -260 13 -539 -57 -763 -190 -43 -26 -71 -37 -73 -30 -10 28 -109 183
-154 239 -73 92 -217 225 -311 287 -157 104 -309 168 -493 208 -104 23 -345
33 -444 19z m329 -205 c132 -20 229 -49 336 -99 230 -109 425 -293 539 -510
l39 -73 -70 -79 c-39 -43 -85 -99 -104 -124 -19 -25 -35 -47 -37 -50 -2 -2
-149 140 -326 317 -177 176 -333 326 -346 333 -73 37 -161 -47 -131 -125 6
-17 159 -178 352 -372 363 -364 355 -353 315 -407 -13 -17 -16 -17 -75 13
-124 63 -316 114 -472 127 -81 7 -86 9 -117 43 -43 48 -145 195 -172 249 -99
194 -146 449 -121 651 l12 100 57 6 c31 4 61 8 66 10 26 9 170 3 255 -10z
m101 -1261 c107 -19 232 -60 333 -111 63 -32 68 -36 62 -61 -18 -85 -29 -286
-20 -380 5 -56 7 -102 4 -102 -2 0 -90 86 -195 190 -179 178 -194 190 -228
190 -41 0 -95 -41 -98 -75 -5 -62 -2 -66 344 -415 273 -276 351 -361 387 -420
24 -41 68 -103 97 -137 29 -34 53 -65 53 -69 0 -13 -166 5 -261 27 -501 117
-853 520 -910 1042 -10 93 -10 131 2 217 l14 105 45 6 c93 12 278 9 371 -7z"/>
<path d="M3563 4205 c-362 -66 -671 -330 -789 -677 -145 -426 10 -898 381
-1160 116 -82 224 -130 371 -164 114 -27 329 -25 444 3 383 96 665 378 763
763 32 128 30 349 -5 481 -123 460 -529 772 -997 768 -53 0 -128 -7 -168 -14z
m77 -510 c0 -173 -2 -315 -5 -315 -11 0 -545 312 -545 319 0 12 145 148 193
180 92 62 262 128 335 130 l22 1 0 -315z m299 299 c87 -22 198 -73 274 -128
76 -53 183 -164 171 -175 -11 -10 -533 -311 -540 -311 -2 0 -4 142 -4 315 0
359 -11 326 99 299z m-676 -634 c147 -85 267 -156 267 -159 0 -3 -123 -77
-273 -163 l-272 -157 -18 52 c-47 134 -58 278 -32 414 16 83 45 174 54 169 3
-1 126 -72 274 -156z m1256 88 c35 -115 47 -233 34 -335 -13 -98 -48 -223 -64
-223 -16 0 -539 304 -537 312 3 7 526 315 539 317 3 1 16 -32 28 -71z m-879
-743 c0 -257 -2 -315 -13 -315 -32 0 -169 41 -231 69 -38 17 -96 50 -129 75
-77 54 -183 164 -171 176 13 12 527 310 537 310 4 0 7 -142 7 -315z m481 160
c140 -81 258 -150 262 -154 5 -5 -15 -33 -43 -64 -106 -116 -244 -198 -397
-238 -42 -10 -82 -19 -90 -19 -11 0 -13 59 -13 316 0 258 2 315 13 311 7 -3
128 -71 268 -152z"/>
<path d="M4623 4202 c-29 -4 -73 -49 -74 -76 -4 -62 16 -97 67 -121 86 -41
170 42 129 129 -24 50 -70 76 -122 68z"/>
<path d="M533 4125 c-151 -156 -257 -400 -270 -623 l-6 -92 -48 -35 c-90 -65
-167 -182 -194 -297 -41 -173 1 -605 90 -928 198 -721 676 -1352 1307 -1729
282 -168 647 -302 968 -355 167 -28 524 -67 552 -60 60 13 89 100 51 154 -9
14 -92 119 -183 235 -237 300 -427 553 -568 757 -67 97 -134 186 -149 197 -28
23 -64 27 -94 11 -17 -9 -24 -3 -59 51 -22 34 -40 65 -40 69 0 4 9 15 19 24
29 26 35 69 16 105 -24 47 -57 64 -108 57 l-43 -7 -56 98 -57 97 26 30 c40 47
29 87 -72 271 -101 183 -290 567 -391 795 -83 187 -122 248 -219 338 -124 116
-272 177 -453 189 l-94 6 7 54 c17 139 79 284 170 398 90 113 97 126 91 165
-7 49 -46 80 -98 80 -38 0 -47 -6 -95 -55z m138 -869 c55 -17 112 -45 156 -79
l32 -24 -61 -11 c-81 -15 -156 -53 -220 -111 -53 -47 -53 -47 -103 -39 -80 13
-169 1 -259 -37 -17 -8 -18 -5 -12 41 19 130 102 228 231 271 47 15 167 10
236 -11z"/>
<path d="M4711 1896 c-56 -31 -66 -99 -22 -148 39 -44 98 -46 138 -5 78 78
-19 207 -116 153z"/>
<path d="M3205 1708 c-244 -31 -435 -316 -435 -650 0 -231 88 -442 235 -561
85 -68 149 -90 261 -91 85 -1 95 1 166 36 141 70 249 216 299 404 25 95 31
297 10 384 -75 324 -284 510 -536 478z m145 -218 c112 -57 191 -206 205 -387
l6 -78 -35 70 c-40 81 -100 145 -163 176 -65 31 -163 24 -229 -17 -57 -35
-116 -109 -144 -179 l-19 -50 0 60 c-1 162 90 348 198 405 49 26 130 26 181 0z
m-42 -423 c11 -12 31 -45 43 -72 30 -66 33 -205 6 -283 -19 -54 -67 -112 -94
-112 -31 0 -80 66 -98 134 -52 193 50 432 143 333z"/>
<path d="M4077 1690 c-34 -27 -44 -78 -23 -118 20 -38 44 -52 88 -52 42 0 72
20 88 59 37 91 -75 172 -153 111z"/>
<path d="M4488 1575 c-77 -43 -59 -159 28 -181 66 -17 135 62 112 127 -20 57
-88 83 -140 54z"/>
<path d="M4273 1155 c-84 -18 -154 -58 -209 -117 -58 -62 -90 -133 -106 -230
-28 -181 62 -406 228 -572 345 -346 840 -296 923 92 16 76 14 135 -9 229 -90
377 -499 673 -827 598z m242 -217 c69 -22 166 -82 213 -131 l33 -34 -73 25
c-59 20 -87 23 -148 20 -82 -5 -121 -21 -169 -69 -48 -48 -64 -87 -69 -169 -3
-61 0 -89 20 -148 l25 -73 -35 33 c-87 83 -153 230 -155 343 -3 193 141 275
358 203z m144 -344 c110 -55 211 -189 211 -279 0 -52 -13 -65 -65 -65 -91 0
-231 106 -280 212 -27 57 -33 126 -13 146 21 21 91 14 147 -14z"/>
</g>
</svg>
